<svg width="14" height="2" viewBox="0 0 14 2" fill="none" xmlns="http://www.w3.org/2000/svg">
<path d="M7.00005 -0.000238149C6.44777 -0.000238149 6.00006 0.447476 6.00006 0.999759C6.00006 1.55204 6.44777 1.99976 7.00005 1.99976V-0.000238149ZM13 1.99976C13.5523 1.99976 14 1.55204 14 0.999759C14 0.447476 13.5523 -0.000238149 13 -0.000238149V1.99976ZM7.00005 1.99976C7.55234 1.99976 8.00005 1.55204 8.00005 0.999759C8.00005 0.447476 7.55234 -0.000238149 7.00005 -0.000238149V1.99976ZM1.00007 -0.000238149C0.44779 -0.000238149 7.5769e-05 0.447476 7.5769e-05 0.999759C7.5769e-05 1.55204 0.44779 1.99976 1.00007 1.99976V-0.000238149ZM7.00005 1.99976H13V-0.000238149H7.00005V1.99976ZM7.00005 -0.000238149H1.00007V1.99976H7.00005V-0.000238149Z" fill="#CAD0D8"/>
</svg>
