<svg width="18" height="16" viewBox="0 0 18 16" fill="none" xmlns="http://www.w3.org/2000/svg">
<path fill-rule="evenodd" clip-rule="evenodd" d="M6.40384 3.11644C6.40384 1.39872 4.96796 0 3.20192 0C1.4369 0 0 1.39872 0 3.11644C0 4.83415 1.4369 6.23086 3.20192 6.23086C4.96796 6.23086 6.40384 4.83415 6.40384 3.11644ZM17.9999 12.8843C17.9999 11.1666 16.564 9.76891 14.799 9.76891C13.0329 9.76891 11.596 11.1666 11.596 12.8843C11.596 14.6021 13.0329 15.9998 14.799 15.9998C16.564 15.9998 17.9999 14.6021 17.9999 12.8843ZM13.139 12.8843C13.139 11.9988 13.8837 11.2783 14.7991 11.2783C15.7135 11.2783 16.4571 11.9988 16.4571 12.8843C16.4571 13.7708 15.7135 14.4903 14.7991 14.4903C13.8837 14.4903 13.139 13.7708 13.139 12.8843ZM7.28268 12.1687C7.7085 12.1687 8.0541 12.5068 8.0541 12.9234C8.0541 13.34 7.7085 13.6781 7.28268 13.6781H0.801696C0.37587 13.6781 0.030273 13.34 0.030273 12.9234C0.030273 12.5068 0.37587 12.1687 0.801696 12.1687H7.28268ZM3.20202 1.50938C2.28763 1.50938 1.54295 2.22987 1.54295 3.1164C1.54295 4.00193 2.28763 4.72141 3.20202 4.72141C4.11744 4.72141 4.8611 4.00193 4.8611 3.1164C4.8611 2.22987 4.11744 1.50938 3.20202 1.50938ZM17.425 3.1702C17.425 2.7536 17.0794 2.4155 16.6536 2.4155H10.1736C9.74782 2.4155 9.40222 2.7536 9.40222 3.1702C9.40222 3.5868 9.74782 3.92491 10.1736 3.92491H16.6536C17.0794 3.92491 17.425 3.5868 17.425 3.1702Z" fill="#F25D29"/>
</svg>
