<svg width="24" height="24" viewBox="0 0 24 24" fill="none" xmlns="http://www.w3.org/2000/svg">
<path fill-rule="evenodd" clip-rule="evenodd" d="M21.6389 5.23686L23.4354 7.03333C24.188 7.78597 24.188 9.01057 23.4354 9.76316L21.7321 11.4664C20.9777 12.2209 19.7567 12.2208 19.0023 11.4664L17.2773 9.74146L9.74146 17.2773L11.4664 19.0023C12.221 19.7567 12.2209 20.9776 11.4664 21.7321L9.76321 23.4354C9.01057 24.188 7.78597 24.188 7.03338 23.4354L5.63368 22.0357L4.76226 22.9071C4.19273 23.4767 3.27082 23.4766 2.70143 22.9071L1.48953 21.6952C0.921408 21.127 0.921409 20.2026 1.48948 19.6344L2.36095 18.763L0.564476 16.9665C-0.188159 16.2139 -0.188159 14.9893 0.564476 14.2367L2.26776 12.5334C3.02217 11.7789 4.24317 11.779 4.99759 12.5334L6.76134 14.2972L14.2972 6.76134L12.5334 4.99754C11.7789 4.24312 11.779 3.02222 12.5334 2.26776L14.2367 0.564476C14.9893 -0.188159 16.2139 -0.188159 16.9665 0.564476L18.3662 1.96413L19.2376 1.09275C19.8072 0.523129 20.7291 0.523269 21.2985 1.09275L22.5104 2.30461C23.0785 2.87282 23.0785 3.79726 22.5104 4.36543L21.6389 5.23686ZM3.73184 21.8159L4.57288 20.9749L3.42164 19.8236L2.58055 20.6647L3.73184 21.8159ZM10.406 20.6718L10.4061 20.6719C10.4068 20.6728 10.4003 20.6793 10.2271 20.8521C10.0261 21.0524 9.60092 21.4765 8.70259 22.3748C8.53486 22.5426 8.26193 22.5426 8.09416 22.3748L1.6253 15.906C1.45757 15.7382 1.45757 15.4653 1.6253 15.2975L3.32863 13.5943C3.49683 13.4261 3.76872 13.4261 3.93697 13.5943L10.4058 20.0632C10.574 20.2314 10.574 20.5033 10.4058 20.6715L10.406 20.6718ZM7.82221 15.3581L8.68084 16.2167L16.2167 8.68084L15.3581 7.82221L7.82221 15.3581ZM19.4271 3.02462L20.2682 2.18358L21.4194 3.33482L20.5783 4.17591L19.4271 3.02462ZM20.0632 10.4058C20.2314 10.574 20.5033 10.574 20.6715 10.4058L22.3748 8.70259C22.5426 8.53486 22.5426 8.26189 22.3748 8.09416L15.906 1.6253C15.7382 1.45757 15.4653 1.45757 15.2975 1.6253C13.6245 3.29838 13.5925 3.32623 13.594 3.32822C13.5941 3.32834 13.5943 3.32837 13.5943 3.32863C13.4261 3.49683 13.4261 3.76872 13.5943 3.93692L20.0632 10.4058Z" fill="#9299A3"/>
</svg>
