<svg width="13" height="13" viewBox="0 0 13 13" fill="none" xmlns="http://www.w3.org/2000/svg">
<path d="M12.7119 0.297823C12.5277 0.113211 12.2776 0.00946513 12.0168 0.00946513C11.756 0.00946513 11.5059 0.113211 11.3216 0.297823L6.49994 5.10964L1.67826 0.287963C1.42991 0.0396098 1.06793 -0.0573832 0.728671 0.0335204C0.389414 0.124424 0.124424 0.389414 0.0335204 0.728671C-0.0573832 1.06793 0.0396098 1.42991 0.287963 1.67826L5.10964 6.49994L0.287963 11.3216C0.0396098 11.57 -0.0573832 11.932 0.0335204 12.2712C0.124424 12.6105 0.389414 12.8755 0.728671 12.9664C1.06793 13.0573 1.42991 12.9603 1.67826 12.7119L6.49994 7.89024L11.3216 12.7119C11.57 12.9603 11.932 13.0573 12.2712 12.9664C12.6105 12.8755 12.8755 12.6105 12.9664 12.2712C13.0573 11.932 12.9603 11.57 12.7119 11.3216L7.89024 6.49994L12.7119 1.67826C13.0866 1.30357 13.0866 0.672514 12.7119 0.297823Z" fill="black"/>
</svg>
