<svg width="50" height="34" viewBox="0 0 50 34" fill="none" xmlns="http://www.w3.org/2000/svg">
<path fill-rule="evenodd" clip-rule="evenodd" d="M15.4039 0.10107C17.0942 -0.00860725 18.7825 0.000166928 20.4728 0.000166928C20.4845 0.000166928 29.0379 0.000166928 29.0379 0.000166928C30.7612 0.000166928 32.4495 -0.00860725 34.1388 0.10107C35.6747 0.199779 37.1707 0.41036 38.6599 0.880875C41.7947 1.87016 44.5321 3.93648 46.5109 6.86596C48.4781 9.77679 49.5428 13.3402 49.5428 16.999C49.5428 20.6623 48.4781 24.2235 46.5109 27.1343C44.5321 30.0627 41.7947 32.1301 38.6599 33.1194C37.1707 33.5899 35.6747 33.7994 34.1388 33.8992C32.4495 34.0089 30.7612 33.999 29.0709 33.999C29.0593 33.999 20.5039 34.0001 20.5039 34.0001C18.7825 33.999 17.0942 34.0089 15.4039 33.8992C13.8691 33.7994 12.3731 33.5899 10.8839 33.1194C7.74907 32.1301 5.01159 30.0627 3.03279 27.1343C1.06565 24.2235 0 20.6623 0 17.0001C0 13.3402 1.06565 9.77679 3.03279 6.86596C5.01159 3.93648 7.74907 1.87016 10.8839 0.880875C12.3731 0.41036 13.8691 0.199779 15.4039 0.10107Z" fill="#787880" fill-opacity="0.16"/>
<mask id="mask0_2_2871" style="mask-type:alpha" maskUnits="userSpaceOnUse" x="0" y="0" width="50" height="34">
<path fill-rule="evenodd" clip-rule="evenodd" d="M15.4039 0.10107C17.0942 -0.00860725 18.7825 0.000166928 20.4728 0.000166928C20.4845 0.000166928 29.0379 0.000166928 29.0379 0.000166928C30.7612 0.000166928 32.4495 -0.00860725 34.1388 0.10107C35.6747 0.199779 37.1707 0.41036 38.6599 0.880875C41.7947 1.87016 44.5321 3.93648 46.5109 6.86596C48.4781 9.77679 49.5428 13.3402 49.5428 16.999C49.5428 20.6623 48.4781 24.2235 46.5109 27.1343C44.5321 30.0627 41.7947 32.1301 38.6599 33.1194C37.1707 33.5899 35.6747 33.7994 34.1388 33.8992C32.4495 34.0089 30.7612 33.999 29.0709 33.999C29.0593 33.999 20.5039 34.0001 20.5039 34.0001C18.7825 33.999 17.0942 34.0089 15.4039 33.8992C13.8691 33.7994 12.3731 33.5899 10.8839 33.1194C7.74907 32.1301 5.01159 30.0627 3.03279 27.1343C1.06565 24.2235 0 20.6623 0 17.0001C0 13.3402 1.06565 9.77679 3.03279 6.86596C5.01159 3.93648 7.74907 1.87016 10.8839 0.880875C12.3731 0.41036 13.8691 0.199779 15.4039 0.10107Z" fill="white"/>
</mask>
<g mask="url(#mask0_2_2871)">
<g filter="url(#filter0_dd_2_2871)">
<circle cx="14.6415" cy="16.6582" r="13.1143" fill="white"/>
<circle cx="14.6415" cy="16.6582" r="13.3551" stroke="black" stroke-opacity="0.04" stroke-width="0.481633"/>
</g>
</g>
<defs>
<filter id="filter0_dd_2_2871" x="-6.72995" y="-1.79897" width="42.7428" height="42.7428" filterUnits="userSpaceOnUse" color-interpolation-filters="sRGB">
<feFlood flood-opacity="0" result="BackgroundImageFix"/>
<feColorMatrix in="SourceAlpha" type="matrix" values="0 0 0 0 0 0 0 0 0 0 0 0 0 0 0 0 0 0 127 0" result="hardAlpha"/>
<feOffset dy="2.8898"/>
<feGaussianBlur stdDeviation="0.481633"/>
<feColorMatrix type="matrix" values="0 0 0 0 0 0 0 0 0 0 0 0 0 0 0 0 0 0 0.06 0"/>
<feBlend mode="normal" in2="BackgroundImageFix" result="effect1_dropShadow_2_2871"/>
<feColorMatrix in="SourceAlpha" type="matrix" values="0 0 0 0 0 0 0 0 0 0 0 0 0 0 0 0 0 0 127 0" result="hardAlpha"/>
<feOffset dy="2.8898"/>
<feGaussianBlur stdDeviation="3.85306"/>
<feColorMatrix type="matrix" values="0 0 0 0 0 0 0 0 0 0 0 0 0 0 0 0 0 0 0.15 0"/>
<feBlend mode="normal" in2="effect1_dropShadow_2_2871" result="effect2_dropShadow_2_2871"/>
<feBlend mode="normal" in="SourceGraphic" in2="effect2_dropShadow_2_2871" result="shape"/>
</filter>
</defs>
</svg>
