<svg width="24" height="24" viewBox="0 0 24 24" fill="none" xmlns="http://www.w3.org/2000/svg">
<path d="M23.1796 2.69742C23.412 2.9539 23.661 3.24394 23.924 3.57073C24.0347 3.70873 24.0227 3.90696 23.899 4.03064C23.8941 4.03552 23.8892 4.0404 23.884 4.04496C23.8769 4.05145 23.151 4.69661 22.0059 5.74144L17.1329 10.2896C15.9035 11.465 14.7379 12.6032 13.6706 13.6705C12.6033 14.7378 11.4647 15.9038 10.287 17.1361L5.73846 22.0087C4.6962 23.1512 4.05109 23.877 4.0446 23.8842C3.92253 24.0213 3.71389 24.0392 3.57037 23.9242C3.24486 23.6626 2.95518 23.4139 2.69935 23.1821C1.54971 22.1406 1.08063 21.4391 1.05687 21.4036C0.971271 21.2731 0.983289 21.1009 1.08712 20.9841C1.09362 20.9769 1.73877 20.251 2.78329 19.1063L7.34516 14.219C8.52966 12.9799 9.67116 11.811 10.7411 10.7411C11.8107 9.67153 12.9799 8.52967 14.2161 7.34813L14.2187 7.3455L19.103 2.78592C20.2511 1.73878 20.977 1.09368 20.9841 1.08714C21.101 0.983304 21.2731 0.97124 21.4033 1.05721C21.4392 1.08065 22.1396 1.5494 23.1796 2.69742Z" fill="#C7CDE0"/>
<path d="M23.1526 2C23.3926 2.26487 23.6498 2.56441 23.9215 2.9019C24.0358 3.04442 24.0234 3.24913 23.8956 3.37686C23.8906 3.3819 23.8855 3.38694 23.8802 3.39165C23.8728 3.39836 23.1231 4.06463 21.9404 5.14366L16.9074 9.8407C15.6377 11.0545 14.4338 12.2301 13.3314 13.3323C12.2291 14.4345 11.0531 15.6386 9.83681 16.9113L5.13892 21.9434C4.06244 23.1233 3.39615 23.8729 3.38944 23.8803C3.26337 24.0218 3.04788 24.0403 2.89964 23.9216C2.56345 23.6514 2.26427 23.3946 2.00003 23.1552C3.89404 20.9407 11.2827 12.545 23.1526 2V2Z" fill="#B1ACCC"/>
<path d="M10.816 22.0568C10.816 22.1512 10.7782 22.2413 10.7119 22.3076C10.7026 22.317 10.6932 22.3257 10.6825 22.3337C10.256 22.6744 9.81172 22.9573 9.39689 23.1873C8.42772 23.7238 7.61919 23.9706 7.57164 23.9846C7.46015 24.0184 7.33896 23.995 7.24789 23.922C2.88239 20.4287 0.0996567 16.782 0.0718564 16.7455C0.0035633 16.6551 -0.0175119 16.5376 0.0149297 16.4289C0.0293271 16.3816 0.27271 15.5833 0.802668 14.6223C1.03435 14.2025 1.3206 13.7516 1.66609 13.3185C1.73405 13.2331 1.83853 13.1835 1.94797 13.1853C2.0578 13.1866 2.16057 13.2385 2.2265 13.3258C2.25932 13.3687 5.53549 17.6607 10.6828 21.7791C10.7672 21.8466 10.816 21.949 10.816 22.0568Z" fill="#8389AA"/>
<path d="M10.8163 22.0568C10.8163 22.1512 10.7785 22.2413 10.7122 22.3076C10.7029 22.3169 10.6935 22.3257 10.6828 22.3337C10.2562 22.6744 9.81201 22.9573 9.39719 23.1873C4.49155 19.328 0.803011 14.6223 0.803011 14.6223C1.0347 14.2025 1.32094 13.7516 1.66643 13.3185C1.73439 13.2331 1.83887 13.1835 1.94832 13.1853C2.05814 13.1866 2.16092 13.2385 2.22684 13.3258C2.25966 13.3687 5.53583 17.6607 10.6831 21.7791C10.7675 21.8466 10.8163 21.949 10.8163 22.0568Z" fill="#646D91"/>
<path d="M14.8715 20.6828C14.9546 20.7524 15.0018 20.8552 14.9994 20.9633C14.9974 21.0557 14.9599 21.1428 14.8956 21.207C14.8843 21.2184 14.8725 21.2288 14.8595 21.2385C14.5277 21.4912 14.1833 21.7104 13.8434 21.8989C12.7855 22.488 11.7778 22.7833 11.367 22.8888C11.2475 22.9192 11.1206 22.8941 11.0219 22.8201C10.446 22.389 8.3279 20.7558 5.7859 18.2141C3.04973 15.4783 1.57101 13.5237 1.17394 12.9774C1.10229 12.879 1.07851 12.7541 1.10868 12.6363C1.21178 12.2326 1.50205 11.2381 2.08089 10.1887C2.27407 9.83889 2.49903 9.48274 2.75984 9.14028C2.82647 9.05291 2.92925 9.00167 3.03869 9.00001C3.14819 8.99902 3.25229 9.04888 3.32025 9.13426C3.36572 9.19185 7.95963 14.9366 14.8715 20.6828Z" fill="#8389AA"/>
<path d="M14.8713 20.6828C14.9543 20.7524 15.0016 20.8552 14.9992 20.9633C14.9972 21.0557 14.9597 21.1428 14.8954 21.207C14.8841 21.2184 14.8723 21.2288 14.8593 21.2385C14.5275 21.4912 14.183 21.7104 13.8432 21.8989C8.03538 17.1208 3.5781 11.9846 2.08062 10.1887C2.2738 9.83889 2.49876 9.48274 2.75957 9.14028C2.82621 9.05291 2.92898 9.00167 3.03843 9.00001C3.14792 8.99902 3.25202 9.04888 3.31998 9.13426C3.3655 9.19185 7.95941 14.9366 14.8713 20.6828Z" fill="#646D91"/>
<path d="M22.0568 10.816C22.1512 10.816 22.2413 10.7782 22.3076 10.7119C22.317 10.7026 22.3257 10.6932 22.3337 10.6825C22.6744 10.256 22.9573 9.81172 23.1873 9.39689C23.7238 8.42772 23.9706 7.61919 23.9846 7.57164C24.0184 7.46015 23.995 7.33896 23.922 7.24789C20.4287 2.88239 16.782 0.0996567 16.7455 0.0718564C16.6551 0.0035633 16.5376 -0.0175119 16.4289 0.0149297C16.3816 0.0293271 15.5833 0.27271 14.6223 0.802668C14.2025 1.03435 13.7516 1.3206 13.3185 1.66609C13.2331 1.73405 13.1835 1.83853 13.1853 1.94797C13.1866 2.0578 13.2385 2.16057 13.3258 2.2265C13.3687 2.25932 17.6607 5.53549 21.7791 10.6828C21.8466 10.7672 21.949 10.816 22.0568 10.816Z" fill="#8389AA"/>
<path d="M22.0568 10.8161C22.1512 10.8161 22.2413 10.7782 22.3076 10.712C22.317 10.7026 22.3257 10.6932 22.3337 10.6825C22.6744 10.256 22.9573 9.81174 23.1873 9.39692C19.328 4.49128 14.6223 0.80274 14.6223 0.80274C14.2025 1.03442 13.7516 1.32067 13.3185 1.66616C13.2331 1.73412 13.1835 1.8386 13.1853 1.94805C13.1866 2.05787 13.2385 2.16064 13.3258 2.22657C13.3687 2.25939 17.6607 5.53556 21.7791 10.6828C21.8466 10.7672 21.949 10.8161 22.0568 10.8161Z" fill="#646D91"/>
<path d="M20.6829 14.8719C20.7525 14.9549 20.8553 15.0022 20.9635 14.9998C21.0558 14.9978 21.1429 14.9603 21.2071 14.896C21.2185 14.8847 21.2289 14.8729 21.2386 14.8599C21.4913 14.5281 21.7106 14.1836 21.899 13.8438C22.4882 12.7859 22.7834 11.7782 22.8889 11.3674C22.9193 11.2479 22.8942 11.121 22.8203 11.0223C22.3891 10.4464 20.7559 8.32829 18.2142 5.7863C15.4784 3.05012 13.5239 1.5714 12.9775 1.17433C12.8791 1.10268 12.7543 1.0789 12.6364 1.10907C12.2327 1.21218 11.2382 1.50244 10.1888 2.08128C9.839 2.27446 9.48285 2.49942 9.14039 2.76023C9.05302 2.82687 9.00178 2.92964 9.00013 3.03909C8.99913 3.14858 9.049 3.25268 9.13438 3.32064C9.19196 3.36611 14.9368 7.96002 20.6829 14.8719Z" fill="#8389AA"/>
<path d="M20.6829 14.8721C20.7525 14.9552 20.8553 15.0024 20.9635 15C21.0558 14.998 21.1429 14.9605 21.2071 14.8962C21.2185 14.8849 21.2289 14.8731 21.2386 14.8601C21.4913 14.5284 21.7106 14.1839 21.899 13.844C17.121 8.0362 11.9847 3.57892 10.1888 2.08144C9.839 2.27462 9.48285 2.49958 9.14039 2.76039C9.05302 2.82703 9.00178 2.9298 9.00013 3.03925C8.99913 3.14875 9.049 3.25284 9.13438 3.3208C9.19196 3.36632 14.9368 7.96023 20.6829 14.8721Z" fill="#646D91"/>
</svg>
