<svg width="19" height="24" viewBox="0 0 19 24" fill="none" xmlns="http://www.w3.org/2000/svg">
<path fill-rule="evenodd" clip-rule="evenodd" d="M8.39448 11.1998H10.6054C15.2396 11.2043 18.9952 14.6831 18.9999 18.9759V20.7279C18.9952 22.5331 17.4165 23.9955 15.4677 23.9998H3.53224C1.58341 23.9955 0.00473124 22.5331 0 20.7279V18.9759C0.00473124 14.6831 3.7603 11.2043 8.39448 11.1998ZM15.4675 22.4C16.4624 22.3956 17.2677 21.6496 17.2724 20.728H17.2725V18.976C17.2725 15.5651 14.2875 12.8 10.6052 12.8H8.39433C4.71209 12.8 1.72705 15.5651 1.72705 18.976V20.728C1.73178 21.6496 2.53712 22.3956 3.53201 22.4H15.4675Z" fill="#9299A3"/>
<path fill-rule="evenodd" clip-rule="evenodd" d="M15.1135 5.19998C15.1135 8.07183 12.6001 10.4 9.49983 10.4C6.40146 10.3956 3.89094 8.07005 3.88621 5.19998C3.88621 2.32813 6.39953 0 9.49983 0C12.6001 0 15.1135 2.32813 15.1135 5.19998ZM13.3859 5.20007C13.3859 3.21187 11.6459 1.60009 9.49955 1.60009C7.35511 1.60448 5.61793 3.21365 5.6132 5.20007C5.6132 7.18828 7.35319 8.80006 9.49955 8.80006C11.6459 8.80006 13.3859 7.18828 13.3859 5.20007Z" fill="#9299A3"/>
</svg>
