<svg width="7" height="14" viewBox="0 0 7 14" fill="none" xmlns="http://www.w3.org/2000/svg">
<path d="M0.993338 13.9112C0.761651 13.9117 0.537119 13.831 0.358721 13.6832C0.155933 13.5151 0.0283747 13.2732 0.00419071 13.0109C-0.0199933 12.7486 0.0611853 12.4874 0.229814 12.285L4.67214 6.97012L0.388468 1.64529C0.222109 1.44043 0.144271 1.17771 0.172187 0.915296C0.200104 0.65288 0.331472 0.412417 0.537207 0.247145C0.744614 0.0646541 1.01875 -0.0230382 1.29357 0.00519628C1.56838 0.0334308 1.81896 0.175032 1.98493 0.395884L6.7743 6.34542C7.07507 6.71132 7.07507 7.23884 6.7743 7.60474L1.81636 13.5543C1.61461 13.7977 1.3089 13.9303 0.993338 13.9112Z" fill="#9299A3"/>
</svg>
