<svg width="24" height="24" viewBox="0 0 24 24" fill="none" xmlns="http://www.w3.org/2000/svg">
<path fill-rule="evenodd" clip-rule="evenodd" d="M23.3493 10.4375C23.3497 10.4379 23.3501 10.4384 23.3506 10.4388C24.2102 11.3003 24.2098 12.7012 23.3493 13.5622C22.9317 13.9798 22.3769 14.2096 21.787 14.2096H21.4253V21.414C21.4253 22.8399 20.2654 23.9998 18.8395 23.9998H15.0098C14.6214 23.9998 14.3067 23.6849 14.3067 23.2967V17.6483C14.3067 16.9977 13.7776 16.4686 13.1271 16.4686H10.8682C10.2177 16.4686 9.68837 16.9977 9.68837 17.6483V23.2967C9.68837 23.6849 9.37364 23.9998 8.98532 23.9998H5.15553C3.72985 23.9998 2.56981 22.8399 2.56981 21.414V14.2096H2.17984C2.15696 14.2096 2.13425 14.2085 2.11155 14.2063C1.55698 14.1823 1.03849 13.9549 0.645768 13.562C-0.213819 12.7023 -0.215284 11.3039 0.641557 10.4421L0.651443 10.432L10.4354 0.647273C10.8528 0.229796 11.4075 0 11.9976 0C12.5877 0 13.1425 0.229796 13.5597 0.647273L23.3488 10.4369C23.3489 10.4371 23.3491 10.4373 23.3493 10.4375Z" fill="#F25D29"/>
</svg>
