<svg width="15" height="18" viewBox="0 0 15 18" fill="none" xmlns="http://www.w3.org/2000/svg">
<path fill-rule="evenodd" clip-rule="evenodd" d="M7.32969 0.000967742L7.2576 0.00822581H7.25711C7.15695 0.0227419 7.06211 0.0546774 6.97647 0.101613L6.96727 0.106452C6.94764 0.117224 6.92858 0.129015 6.91018 0.141774L6.8555 0.180968C6.82502 0.205161 6.79598 0.23129 6.76889 0.259355L3.01792 4.01129L2.96276 4.07177C2.6856 4.40846 2.70947 4.90059 3.01792 5.20887L3.0784 5.26355C3.41497 5.54084 3.90709 5.51717 4.2155 5.20887L6.53227 2.89113V12.2173L6.53518 12.2869C6.57144 12.7261 6.93842 13.064 7.37905 13.064L7.44824 13.0611C7.88757 13.0251 8.22579 12.6581 8.22582 12.2173V2.88919L10.545 5.20887L10.6055 5.26355C10.9543 5.55018 11.4666 5.51282 11.77 5.1786C12.0735 4.84439 12.0614 4.33087 11.7426 4.01129L7.97905 0.247742L7.93405 0.205645L7.87598 0.159677C7.79373 0.100161 7.70276 0.0570968 7.6084 0.0309677L7.57502 0.0222581L7.48889 0.00629032L7.41437 0L7.32969 0.000967742ZM14.9971 7.5513C14.9611 7.11197 14.594 6.77376 14.1532 6.77372C13.6853 6.77372 13.3065 7.15308 13.3065 7.62049V14.5157L13.304 14.5902C13.2649 15.1612 12.7901 15.6044 12.2177 15.6044H2.78226L2.70774 15.6019C2.13668 15.5628 1.69348 15.0881 1.69355 14.5157V7.62049L1.69065 7.5513C1.6531 7.099 1.26562 6.75673 0.812147 6.77529C0.358669 6.79385 0.000461278 7.16664 0 7.62049V14.5157L0.00193548 14.6221C0.0591439 16.1162 1.28704 17.298 2.78226 17.2979H12.2177L12.3242 17.296C13.8183 17.2388 15.0001 16.0109 15 14.5157V7.62049L14.9971 7.5513Z" fill="black"/>
</svg>
