<svg width="24" height="24" viewBox="0 0 24 24" fill="none" xmlns="http://www.w3.org/2000/svg">
<path d="M12.7376 8.29186C12.4989 8.24445 12.2524 8.21911 12 8.21911C9.91528 8.21911 8.21923 9.91515 8.21923 11.9999C8.21923 14.0847 9.91528 15.7807 12 15.7807C14.0848 15.7807 15.7809 14.0847 15.7809 11.9999C15.7809 11.7476 15.7555 11.5011 15.7081 11.2624L13.4853 13.4852C13.0886 13.8819 12.5611 14.1004 12 14.1004C11.439 14.1004 10.9115 13.8819 10.5148 13.4852C10.118 13.0884 9.8996 12.561 9.8996 11.9999C9.8996 11.4389 10.118 10.9114 10.5148 10.5147L12.7376 8.29186Z" fill="#F25D29"/>
<path d="M22.926 7.04002L21.4132 8.55284C21.2618 8.70427 21.0911 8.82988 20.9069 8.92729C21.2402 9.89097 21.4218 10.9246 21.4218 12C21.4218 17.1952 17.1952 21.4218 12 21.4218C6.80473 21.4218 2.57812 17.1952 2.57812 12C2.57812 6.80473 6.80473 2.57812 12 2.57812C13.0757 2.57812 14.1099 2.75994 15.0738 3.09338C15.1714 2.90899 15.2961 2.7376 15.4473 2.58654L16.9599 1.07391C15.4473 0.384521 13.7679 0 12 0C5.38311 0 0 5.38311 0 12C0 18.6168 5.38311 24 12 24C18.6168 24 24 18.6168 24 12C24 10.2321 23.6154 8.55266 22.926 7.04002Z" fill="#F25D29"/>
<path d="M15.0011 6.00121L14.8723 4.47474C13.9798 4.13269 13.0115 3.94519 12.0001 3.94519C7.55871 3.94519 3.94532 7.55858 3.94532 12C3.94532 16.4414 7.55871 20.0547 12.0001 20.0547C16.4415 20.0547 20.0549 16.4414 20.0549 12C20.0549 10.9885 19.8674 10.0203 19.5253 9.12773L17.9989 8.99893L16.8785 10.1191C17.1044 10.7031 17.2286 11.3372 17.2286 12C17.2286 14.8831 14.8832 17.2285 12.0001 17.2285C9.117 17.2285 6.77156 14.8831 6.77156 12C6.77156 9.11688 9.117 6.77143 12.0001 6.77143C12.6629 6.77143 13.2969 6.89563 13.8809 7.12158L15.0011 6.00121Z" fill="#F25D29"/>
<path d="M16.389 4.02969L16.5913 6.42653L11.7104 11.3074C11.439 11.5786 11.439 12.0186 11.7104 12.2898C11.8459 12.4255 12.0237 12.4933 12.2016 12.4933C12.3794 12.4933 12.5573 12.4255 12.6928 12.2898L17.5737 7.40892L19.9706 7.61101C19.9901 7.61264 20.0095 7.61355 20.029 7.61355C20.2124 7.61355 20.3894 7.54082 20.5202 7.41001L23.4676 4.46245C23.6588 4.2714 23.7218 3.98663 23.629 3.73262C23.536 3.47861 23.3042 3.30167 23.0348 3.27905L20.901 3.09903L20.7212 0.965437C20.6984 0.695866 20.5215 0.464106 20.2676 0.371294C20.0136 0.278301 19.7288 0.341442 19.5376 0.532494L16.5902 3.48005C16.4455 3.62479 16.3718 3.82579 16.389 4.02969Z" fill="#F25D29"/>
</svg>
