<svg width="24" height="24" viewBox="0 0 24 24" fill="none" xmlns="http://www.w3.org/2000/svg">
<path fill-rule="evenodd" clip-rule="evenodd" d="M23.349 10.4371C23.3496 10.4376 23.3501 10.4383 23.3509 10.4389C24.2105 11.3004 24.2101 12.7013 23.3496 13.5623C22.9319 13.98 22.3772 14.2098 21.7873 14.2098H21.4255V21.4143C21.4255 22.8401 20.2656 24.0001 18.8398 24.0001H15.0099C14.6216 24.0001 14.3069 23.6852 14.3069 23.297V17.6485C14.3069 16.9979 13.7777 16.4688 13.1272 16.4688H10.8683C10.2178 16.4688 9.68848 16.9979 9.68848 17.6485V23.297C9.68848 23.6852 9.37375 24.0001 8.98542 24.0001H5.15559C3.72989 24.0001 2.56984 22.8401 2.56984 21.4143V14.2098H2.17987C2.15698 14.2098 2.13428 14.2087 2.11158 14.2065C1.557 14.1825 1.0385 13.9551 0.645775 13.5621C-0.213822 12.7024 -0.215287 11.3041 0.641564 10.4422L0.651451 10.4321L10.4355 0.647281C10.8529 0.229798 11.4077 0 11.9978 0C12.5879 0 13.1426 0.229798 13.5599 0.647281L23.349 10.4371Z" fill="#F25D29"/>
</svg>
