<svg width="16" height="15" viewBox="0 0 16 15" fill="none" xmlns="http://www.w3.org/2000/svg">
<path fill-rule="evenodd" clip-rule="evenodd" d="M12.4161 0.125256C10.9577 -0.33861 9.26965 0.657384 7.99889 1.4548C6.68749 0.633337 5.06582 -0.352573 3.57779 0.125256C0.408704 1.13909 -0.572893 4.57232 0.308669 7.30433C0.308669 7.30433 0.308669 7.3051 0.309451 7.3051C1.71385 11.6443 7.47605 14.7968 7.72067 14.9294C7.8082 14.9767 7.90432 15 8.00123 15C8.09814 15 8.19505 14.976 8.28258 14.9279C8.52876 14.7937 14.3332 11.5939 15.6922 7.30433C16.573 4.5731 15.5883 1.14064 12.4161 0.125256ZM1.4257 6.94985C0.729359 4.79109 1.27261 1.69089 3.93752 1.23297C5.08015 1.03663 6.58768 1.83569 7.64899 2.62767C7.86 2.78591 8.15073 2.78281 8.36018 2.62302C9.3621 1.85353 10.9416 1.03663 12.0576 1.23297C14.7277 1.70274 15.272 4.79186 14.5757 6.95295C13.5151 10.2962 9.15499 13.0623 8.00068 13.7465C6.85027 13.0693 2.5214 10.3334 1.4257 6.94985Z" fill="white"/>
</svg>
