<svg width="24" height="24" viewBox="0 0 24 24" fill="none" xmlns="http://www.w3.org/2000/svg">
<path fill-rule="evenodd" clip-rule="evenodd" d="M21.639 5.23688L23.4355 7.03336C24.1881 7.786 24.1881 9.01061 23.4355 9.7632L21.7322 11.4664C20.9778 12.221 19.7567 12.2209 19.0023 11.4664L17.2774 9.7415L9.7415 17.2774L11.4665 19.0024C12.221 19.7568 12.221 20.9777 11.4665 21.7322L9.76325 23.4355C9.01061 24.1881 7.786 24.1881 7.03341 23.4355L5.6337 22.0358L4.76228 22.9072C4.19275 23.4768 3.27083 23.4767 2.70144 22.9072L1.48953 21.6953C0.921412 21.1271 0.921412 20.2027 1.48949 19.6345L2.36096 18.7631L0.564478 16.9666C-0.188159 16.214 -0.188159 14.9894 0.564478 14.2367L2.26777 12.5335C3.02219 11.779 4.24319 11.7791 4.99761 12.5335L6.76137 14.2973L14.2973 6.76137L12.5335 4.99756C11.779 4.24314 11.779 3.02223 12.5335 2.26777L14.2367 0.564478C14.9893 -0.188159 16.2139 -0.188159 16.9666 0.564478L18.3663 1.96413L19.2377 1.09275C19.8072 0.523131 20.7292 0.523272 21.2985 1.09275L22.5105 2.30461C23.0786 2.87283 23.0786 3.79728 22.5105 4.36545L21.639 5.23688Z" fill="#F25D29"/>
</svg>
