<svg width="50" height="34" viewBox="0 0 50 34" fill="none" xmlns="http://www.w3.org/2000/svg">
<path fill-rule="evenodd" clip-rule="evenodd" d="M15.4039 0.101069C17.0942 -0.00860721 18.7825 0.000166928 20.4728 0.000166928C20.4845 0.000166928 29.0379 0.000166928 29.0379 0.000166928C30.7612 0.000166928 32.4495 -0.00860721 34.1388 0.101069C35.6747 0.199778 37.1707 0.410358 38.6599 0.88087C41.7947 1.87015 44.5321 3.93646 46.5109 6.86593C48.4781 9.77674 49.5428 13.3401 49.5428 16.999C49.5428 20.6622 48.4781 24.2234 46.5109 27.1342C44.5321 30.0625 41.7947 32.1299 38.6599 33.1192C37.1707 33.5897 35.6747 33.7992 34.1388 33.899C32.4495 34.0087 30.7612 33.9988 29.0709 33.9988C29.0593 33.9988 20.5039 33.9999 20.5039 33.9999C18.7825 33.9988 17.0942 34.0087 15.4039 33.899C13.8691 33.7992 12.3731 33.5897 10.8839 33.1192C7.74907 32.1299 5.01159 30.0625 3.03279 27.1342C1.06565 24.2234 0 20.6622 0 17.0001C0 13.3401 1.06565 9.77674 3.03279 6.86593C5.01159 3.93646 7.74907 1.87015 10.8839 0.88087C12.3731 0.410358 13.8691 0.199778 15.4039 0.101069Z" fill="#F25D29"/>
<mask id="mask0_2_2879" style="mask-type:alpha" maskUnits="userSpaceOnUse" x="0" y="0" width="50" height="34">
<path fill-rule="evenodd" clip-rule="evenodd" d="M15.4039 0.101069C17.0942 -0.00860721 18.7825 0.000166928 20.4728 0.000166928C20.4845 0.000166928 29.0379 0.000166928 29.0379 0.000166928C30.7612 0.000166928 32.4495 -0.00860721 34.1388 0.101069C35.6747 0.199778 37.1707 0.410358 38.6599 0.88087C41.7947 1.87015 44.5321 3.93646 46.5109 6.86593C48.4781 9.77674 49.5428 13.3401 49.5428 16.999C49.5428 20.6622 48.4781 24.2234 46.5109 27.1342C44.5321 30.0625 41.7947 32.1299 38.6599 33.1192C37.1707 33.5897 35.6747 33.7992 34.1388 33.899C32.4495 34.0087 30.7612 33.9988 29.0709 33.9988C29.0593 33.9988 20.5039 33.9999 20.5039 33.9999C18.7825 33.9988 17.0942 34.0087 15.4039 33.899C13.8691 33.7992 12.3731 33.5897 10.8839 33.1192C7.74907 32.1299 5.01159 30.0625 3.03279 27.1342C1.06565 24.2234 0 20.6622 0 17.0001C0 13.3401 1.06565 9.77674 3.03279 6.86593C5.01159 3.93646 7.74907 1.87015 10.8839 0.88087C12.3731 0.410358 13.8691 0.199778 15.4039 0.101069Z" fill="white"/>
</mask>
<g mask="url(#mask0_2_2879)">
</g>
<mask id="mask1_2_2879" style="mask-type:alpha" maskUnits="userSpaceOnUse" x="0" y="0" width="50" height="34">
<path fill-rule="evenodd" clip-rule="evenodd" d="M15.4039 0.101069C17.0942 -0.0086072 18.7825 0.000166928 20.4728 0.000166928C20.4845 0.000166928 29.0379 0.000166928 29.0379 0.000166928C30.7612 0.000166928 32.4495 -0.0086072 34.1388 0.101069C35.6747 0.199778 37.1707 0.410358 38.6599 0.880871C41.7947 1.87015 44.5321 3.93646 46.5109 6.86593C48.4781 9.77674 49.5428 13.3401 49.5428 16.999C49.5428 20.6622 48.4781 24.2234 46.5109 27.1342C44.5321 30.0625 41.7947 32.1299 38.6599 33.1192C37.1707 33.5897 35.6747 33.7992 34.1388 33.899C32.4495 34.0087 30.7612 33.9988 29.0709 33.9988C29.0593 33.9988 20.5039 33.9999 20.5039 33.9999C18.7825 33.9988 17.0942 34.0087 15.4039 33.899C13.8691 33.7992 12.3731 33.5897 10.8839 33.1192C7.74907 32.1299 5.01159 30.0625 3.03279 27.1342C1.06565 24.2234 0 20.6622 0 17.0001C0 13.3401 1.06565 9.77674 3.03279 6.86593C5.01159 3.93646 7.74907 1.87015 10.8839 0.880871C12.3731 0.410358 13.8691 0.199778 15.4039 0.101069Z" fill="white"/>
</mask>
<g mask="url(#mask1_2_2879)">
<g filter="url(#filter0_dd_2_2879)">
<circle cx="34.0699" cy="16.5841" r="13.1143" fill="white"/>
<circle cx="34.0699" cy="16.5841" r="13.3551" stroke="black" stroke-opacity="0.04" stroke-width="0.481633"/>
</g>
</g>
<defs>
<filter id="filter0_dd_2_2879" x="12.6984" y="-1.87308" width="42.7428" height="42.7428" filterUnits="userSpaceOnUse" color-interpolation-filters="sRGB">
<feFlood flood-opacity="0" result="BackgroundImageFix"/>
<feColorMatrix in="SourceAlpha" type="matrix" values="0 0 0 0 0 0 0 0 0 0 0 0 0 0 0 0 0 0 127 0" result="hardAlpha"/>
<feOffset dy="2.8898"/>
<feGaussianBlur stdDeviation="0.481633"/>
<feColorMatrix type="matrix" values="0 0 0 0 0 0 0 0 0 0 0 0 0 0 0 0 0 0 0.06 0"/>
<feBlend mode="normal" in2="BackgroundImageFix" result="effect1_dropShadow_2_2879"/>
<feColorMatrix in="SourceAlpha" type="matrix" values="0 0 0 0 0 0 0 0 0 0 0 0 0 0 0 0 0 0 127 0" result="hardAlpha"/>
<feOffset dy="2.8898"/>
<feGaussianBlur stdDeviation="3.85306"/>
<feColorMatrix type="matrix" values="0 0 0 0 0 0 0 0 0 0 0 0 0 0 0 0 0 0 0.15 0"/>
<feBlend mode="normal" in2="effect1_dropShadow_2_2879" result="effect2_dropShadow_2_2879"/>
<feBlend mode="normal" in="SourceGraphic" in2="effect2_dropShadow_2_2879" result="shape"/>
</filter>
</defs>
</svg>
