<svg width="24" height="24" viewBox="0 0 24 24" fill="none" xmlns="http://www.w3.org/2000/svg">
<path fill-rule="evenodd" clip-rule="evenodd" d="M23.35 10.4381C23.3503 10.4384 23.3505 10.4387 23.3508 10.4389C24.2104 11.3004 24.2101 12.7013 23.3495 13.5623C22.9319 13.98 22.3772 14.2098 21.7873 14.2098H21.4255V21.4143C21.4255 22.8401 20.2656 24.0001 18.8397 24.0001H15.0099C14.6216 24.0001 14.3069 23.6851 14.3069 23.2969V17.6485C14.3069 16.9979 13.7777 16.4687 13.1272 16.4687H10.8683C10.2178 16.4687 9.68847 16.9979 9.68847 17.6485V23.2969C9.68847 23.6851 9.37374 24.0001 8.98541 24.0001H5.15559C3.72988 24.0001 2.56984 22.8401 2.56984 21.4143V14.2098H2.17987C2.15698 14.2098 2.13428 14.2087 2.11157 14.2065C1.557 14.1825 1.0385 13.9551 0.645775 13.5621C-0.213822 12.7024 -0.215286 11.3041 0.641563 10.4422L0.65145 10.4321L10.4355 0.64728C10.8529 0.229798 11.4077 0 11.9978 0C12.5878 0 13.1426 0.229798 13.5599 0.64728L23.349 10.437C23.3493 10.4374 23.3497 10.4378 23.35 10.4381ZM21.787 12.8035C22.0014 12.8035 22.2032 12.7198 22.355 12.568C22.6673 12.2555 22.6679 11.747 22.3564 11.4333L22.3519 11.4289L12.5653 1.64155C12.4135 1.48975 12.2119 1.40625 11.9975 1.40625C11.783 1.40625 11.5814 1.48975 11.4298 1.64155L1.641 11.4309L1.64045 11.4315C1.64038 11.4316 1.64034 11.4316 1.6403 11.4317C1.64024 11.4318 1.6402 11.4319 1.64009 11.4319C1.32701 11.7452 1.32701 12.2547 1.64009 12.5679C1.78729 12.7153 1.98374 12.7984 2.1932 12.802C2.20436 12.8022 2.21517 12.8028 2.22615 12.8035H3.27268C3.66101 12.8035 3.97574 13.1183 3.97574 13.5066V21.4143C3.97574 22.0646 4.50504 22.5938 5.15537 22.5938H8.28214V17.6485C8.28214 16.2226 9.44218 15.0625 10.8681 15.0625H13.127C14.5529 15.0625 15.7127 16.2226 15.7127 17.6485V22.5938H18.8395C19.49 22.5938 20.0192 22.0646 20.0192 21.4143V13.5066C20.0192 13.1183 20.3339 12.8035 20.7222 12.8035H21.787Z" fill="#9299A3"/>
</svg>
