<svg width="24" height="22" viewBox="0 0 24 22" fill="none" xmlns="http://www.w3.org/2000/svg">
<path fill-rule="evenodd" clip-rule="evenodd" d="M18.2102 0.183709C16.0713 -0.496627 13.5955 0.964162 11.7317 2.1337C9.8083 0.928893 7.42986 -0.517106 5.24742 0.183709C0.599432 1.67066 -0.840241 6.70606 0.452714 10.713C0.452714 10.713 0.452714 10.7141 0.45386 10.7141C2.51365 17.0783 10.9649 21.7019 11.3236 21.8965C11.452 21.9658 11.593 22 11.7351 22C11.8773 22 12.0194 21.9647 12.1478 21.8942C12.5088 21.6974 21.0219 17.0044 23.0152 10.713C24.307 6.7072 22.8628 1.67294 18.2102 0.183709ZM1.88067 10.2023C0.837186 6.92087 1.65127 2.20849 5.64473 1.51243C7.357 1.21399 9.61608 2.42858 11.2065 3.63242C11.5227 3.87295 11.9584 3.86823 12.2722 3.62534C13.7736 2.4557 16.1406 1.21399 17.8129 1.51243C21.8141 2.22649 22.6298 6.92205 21.5863 10.207C19.9971 15.2888 13.4633 19.4934 11.7335 20.5333C10.0096 19.504 3.52262 15.3454 1.88067 10.2023Z" fill="#0A0615"/>
</svg>
