<svg width="20" height="20" viewBox="0 0 20 20" fill="none" xmlns="http://www.w3.org/2000/svg">
<path fill-rule="evenodd" clip-rule="evenodd" d="M17.3573 0C18.7812 0 19.9385 1.15732 19.9385 2.58126C19.9385 4.00521 18.7812 5.16349 17.3573 5.16349C15.9343 5.16349 14.776 4.00521 14.776 2.58126C14.776 1.15732 15.9343 0 17.3573 0ZM13.1836 1.53798C13.1836 1.13804 12.859 0.813446 12.459 0.813446H5.43785C2.18519 0.813446 0 3.102 0 6.50729V14.3148C0 17.7153 2.18519 20 5.43785 20H13.7497C17.0023 20 19.1875 17.7153 19.1875 14.3148V7.51488C19.1875 7.11493 18.8629 6.79034 18.463 6.79034C18.063 6.79034 17.7385 7.11493 17.7385 7.51488V14.3148C17.7385 16.8884 16.1725 18.5509 13.7497 18.5509H5.43785C2.97734 18.5509 1.44906 16.928 1.44906 14.3148V6.50729C1.44906 3.92796 3.01502 2.26251 5.43785 2.26251H12.459C12.859 2.26251 13.1836 1.93792 13.1836 1.53798ZM14.6322 8.42762C14.8776 8.11172 14.8196 7.65672 14.5027 7.41134C14.1859 7.16404 13.7318 7.22296 13.4865 7.54079L11.1032 10.6157L8.37899 8.47592C8.22732 8.35516 8.03605 8.30107 7.84091 8.32618C7.64963 8.35033 7.47478 8.44984 7.35692 8.60344L4.46556 12.3613C4.22115 12.6782 4.28104 13.1332 4.5979 13.3776C4.72929 13.4781 4.88482 13.5274 5.03939 13.5274C5.25675 13.5274 5.47121 13.4298 5.61418 13.2443L8.05923 10.067L10.7815 12.2058C10.9342 12.3246 11.1254 12.3807 11.3187 12.3546C11.5099 12.3314 11.6838 12.2319 11.8017 12.0793L14.6322 8.42762ZM16.2251 2.58126C16.2251 1.95623 16.7332 1.44906 17.3573 1.44906C17.9813 1.44906 18.4895 1.95623 18.4895 2.58126C18.4895 3.20533 17.9813 3.71443 17.3573 3.71443C16.7332 3.71443 16.2251 3.20533 16.2251 2.58126Z" fill="#F25D29"/>
</svg>
