<svg width="16" height="18" viewBox="0 0 16 18" fill="none" xmlns="http://www.w3.org/2000/svg">
<path fill-rule="evenodd" clip-rule="evenodd" d="M7.74168 0C11.4631 0 13.963 2.89841 13.963 5.6051C13.963 6.99738 14.3171 7.58761 14.693 8.21384C15.0647 8.8317 15.4858 9.53328 15.4858 10.8594C15.1937 14.2476 11.6565 14.5239 7.74168 14.5239C3.8269 14.5239 0.288859 14.2476 1.10816e-05 10.913C-0.00248936 9.53328 0.418626 8.8317 0.790346 8.21384L0.921574 7.99295C1.24468 7.43763 1.52039 6.83358 1.52039 5.6051C1.52039 2.89841 4.02029 0 7.74168 0ZM6.13192 15.9957C6.56559 16.4788 7.12233 16.7442 7.7 16.7442H7.70084C8.28103 16.7442 8.84028 16.4788 9.27479 15.9949C9.50753 15.7379 9.90437 15.7169 10.1614 15.9488C10.4193 16.1807 10.4402 16.5784 10.2083 16.8354C9.53181 17.5864 8.64186 18 7.70084 18H7.69917C6.76066 17.9992 5.87238 17.5856 5.19843 16.8346C4.96652 16.5776 4.98745 16.1799 5.24531 15.9488C5.50317 15.7161 5.90001 15.737 6.13192 15.9957ZM2.77618 5.60506C2.77618 3.54804 4.81561 1.25577 7.74165 1.25577C10.6677 1.25577 12.7071 3.54804 12.7071 5.60506C12.7071 7.34561 13.1902 8.15017 13.6172 8.86012C13.9596 9.43026 14.23 9.88067 14.2325 10.805C14.0935 12.4015 13.0186 13.268 7.74165 13.268C2.43543 13.268 1.39311 12.4383 1.2533 10.8594C1.2533 9.88067 1.52371 9.43026 1.86613 8.86012C2.29311 8.15017 2.77618 7.34561 2.77618 5.60506Z" fill="#F25D29"/>
</svg>
