<svg width="14" height="14" viewBox="0 0 14 14" fill="none" xmlns="http://www.w3.org/2000/svg">
<path d="M6.00006 12.9998C6.00006 13.5521 6.44777 13.9998 7.00005 13.9998C7.55234 13.9998 8.00005 13.5521 8.00005 12.9998H6.00006ZM8.00005 6.9998C8.00005 6.44752 7.55234 5.9998 7.00005 5.9998C6.44777 5.9998 6.00006 6.44752 6.00006 6.9998H8.00005ZM6.00006 6.9998C6.00006 7.55208 6.44777 7.9998 7.00005 7.9998C7.55234 7.9998 8.00005 7.55208 8.00005 6.9998H6.00006ZM8.00005 0.999819C8.00005 0.447536 7.55234 -0.000177992 7.00005 -0.000177992C6.44777 -0.000177992 6.00006 0.447536 6.00006 0.999819H8.00005ZM7.00005 5.9998C6.44777 5.9998 6.00006 6.44752 6.00006 6.9998C6.00006 7.55208 6.44777 7.9998 7.00005 7.9998V5.9998ZM13 7.9998C13.5523 7.9998 14 7.55208 14 6.9998C14 6.44752 13.5523 5.9998 13 5.9998V7.9998ZM7.00005 7.9998C7.55234 7.9998 8.00005 7.55208 8.00005 6.9998C8.00005 6.44752 7.55234 5.9998 7.00005 5.9998V7.9998ZM1.00007 5.9998C0.44779 5.9998 7.5769e-05 6.44752 7.5769e-05 6.9998C7.5769e-05 7.55208 0.44779 7.9998 1.00007 7.9998V5.9998ZM8.00005 12.9998V6.9998H6.00006V12.9998H8.00005ZM8.00005 6.9998V0.999819H6.00006V6.9998H8.00005ZM7.00005 7.9998H13V5.9998H7.00005V7.9998ZM7.00005 5.9998H1.00007V7.9998H7.00005V5.9998Z" fill="#CAD0D8"/>
</svg>
