<svg width="24" height="24" viewBox="0 0 24 24" fill="none" xmlns="http://www.w3.org/2000/svg">
<path fill-rule="evenodd" clip-rule="evenodd" d="M23.349 10.4371C23.3496 10.4376 23.3501 10.4383 23.3509 10.4389C24.2105 11.3004 24.2101 12.7014 23.3496 13.5623C22.932 13.98 22.3772 14.2098 21.7873 14.2098H21.4255V21.4143C21.4255 22.8401 20.2656 24.0001 18.8398 24.0001H15.0099C14.6216 24.0001 14.3069 23.6852 14.3069 23.297V17.6485C14.3069 16.9979 13.7777 16.4688 13.1272 16.4688H10.8683C10.2178 16.4688 9.68848 16.9979 9.68848 17.6485V23.297C9.68848 23.6852 9.37375 24.0001 8.98542 24.0001H5.15559C3.72989 24.0001 2.56984 22.8401 2.56984 21.4143V14.2098H2.17987C2.15698 14.2098 2.13428 14.2087 2.11158 14.2065C1.557 14.1825 1.0385 13.9551 0.645775 13.5621C-0.213822 12.7024 -0.215287 11.3041 0.641564 10.4422L0.651451 10.4321L10.4355 0.647281C10.8529 0.229798 11.4077 0 11.9978 0C12.5879 0 13.1426 0.229798 13.5599 0.647281L23.349 10.4371ZM21.7871 12.8035C22.0015 12.8035 22.2032 12.7198 22.355 12.568C22.6674 12.2555 22.6679 11.747 22.3565 11.4333L22.3519 11.4289L12.5653 1.64155C12.4135 1.48975 12.2119 1.40626 11.9975 1.40626C11.783 1.40626 11.5814 1.48975 11.4298 1.64155L1.64101 11.431L1.64046 11.4315C1.64027 11.4317 1.64027 11.4319 1.64009 11.4319C1.32701 11.7452 1.32701 12.2548 1.64009 12.5679C1.78729 12.7153 1.98375 12.7984 2.1932 12.8021C2.20437 12.8022 2.21517 12.8028 2.22615 12.8035H3.27268C3.66101 12.8035 3.97574 13.1183 3.97574 13.5067V21.4143C3.97574 22.0647 4.50505 22.5938 5.15538 22.5938H8.28215V17.6485C8.28215 16.2227 9.44219 15.0625 10.8681 15.0625H13.127C14.5529 15.0625 15.7128 16.2227 15.7128 17.6485V22.5938H18.8395C19.4901 22.5938 20.0192 22.0647 20.0192 21.4143V13.5067C20.0192 13.1183 20.3339 12.8035 20.7222 12.8035H21.7871Z" fill="#9299A3"/>
</svg>
