<svg width="24" height="24" viewBox="0 0 24 24" fill="none" xmlns="http://www.w3.org/2000/svg">
<path fill-rule="evenodd" clip-rule="evenodd" d="M21.639 5.23688L23.4355 7.03337C24.1882 7.78601 24.1882 9.01062 23.4355 9.76321L21.7322 11.4665C20.9778 12.221 19.7568 12.2209 19.0024 11.4665L17.2774 9.74151L9.74151 17.2774L11.4665 19.0024C12.221 19.7568 12.221 20.9777 11.4665 21.7322L9.76326 23.4355C9.01062 24.1881 7.78601 24.1881 7.03342 23.4355L5.63371 22.0358L4.76228 22.9072C4.19275 23.4768 3.27083 23.4767 2.70145 22.9072L1.48954 21.6954C0.921413 21.1271 0.921413 20.2027 1.48949 19.6345L2.36097 18.7631L0.564479 16.9666C-0.18816 16.214 -0.18816 14.9894 0.564479 14.2368L2.26777 12.5335C3.02219 11.779 4.24319 11.7791 4.99761 12.5335L6.76138 14.2973L14.2973 6.76138L12.5335 4.99757C11.779 4.24315 11.779 3.02224 12.5335 2.26777L14.2368 0.564479C14.9893 -0.18816 16.214 -0.18816 16.9666 0.564479L18.3663 1.96414L19.2377 1.09276C19.8073 0.523132 20.7292 0.523272 21.2986 1.09276L22.5105 2.30462C23.0786 2.87283 23.0786 3.79728 22.5105 4.36545L21.639 5.23688ZM3.73186 21.8163L4.57291 20.9752L3.42166 19.8239L2.58056 20.665L3.73186 21.8163ZM10.4059 20.6714C10.4059 20.6716 10.4061 20.6716 10.4062 20.6718C10.4069 20.6727 10.4003 20.6792 10.2271 20.852L10.2269 20.8521C10.0259 21.0525 9.60072 21.4766 8.70264 22.3747C8.5349 22.5424 8.26198 22.5424 8.0942 22.3747L1.62531 15.9058C1.45758 15.7381 1.45758 15.4651 1.62531 15.2974L3.32865 13.5941C3.49685 13.4259 3.76874 13.426 3.93699 13.5941L10.4059 20.0631C10.574 20.2313 10.574 20.5032 10.4059 20.6714ZM7.82225 15.3581L8.68088 16.2168L16.2168 8.68088L15.3581 7.82225L7.82225 15.3581ZM19.4272 3.02488L20.2683 2.18383L21.4196 3.33508L20.5785 4.17618L19.4272 3.02488ZM20.0633 10.4059C20.2315 10.574 20.5034 10.5741 20.6716 10.4059L22.3749 8.70264C22.5427 8.53491 22.5427 8.26193 22.3749 8.0942L15.9061 1.62531C15.7383 1.45758 15.4653 1.45758 15.2976 1.62531C13.6246 3.2984 13.5925 3.32624 13.5941 3.32824C13.5942 3.32836 13.5944 3.32839 13.5944 3.32865C13.4262 3.49685 13.4262 3.76874 13.5944 3.93695L20.0633 10.4059Z" fill="#9299A3"/>
</svg>
