<svg width="25" height="21" viewBox="0 0 25 21" fill="none" xmlns="http://www.w3.org/2000/svg">
<path d="M18.1297 21H6.87026C3.07593 21 0 17.8946 0 14.0639V2.66054C0 1.19113 1.17983 0 2.6353 0H22.3647C23.8201 0 25 1.19113 25 2.66054V14.064C25 17.8946 21.9241 21 18.1297 21Z" fill="#E0E0E0"/>
<path d="M22.1691 0H20.5491C22.1125 0 23.3799 1.19044 23.3799 2.65896V14.068C23.3799 17.8964 20.0757 21 15.9999 21H17.62C21.6958 21 24.9999 17.8964 24.9999 14.068V2.65896C24.9999 1.19044 23.7325 0 22.1691 0V0Z" fill="#BDBDBD"/>
<path d="M1.99993 14.5735V3.14066C1.99993 2.51067 2.50498 2.00001 3.12796 2.00001H22.8719C23.4949 2.00001 23.9999 2.51072 23.9999 3.14066V14.5735C23.9999 17.5704 21.5972 20 18.6334 20H7.36646C4.40259 20 1.99993 17.5704 1.99993 14.5735Z" fill="#FFD54F"/>
<path d="M22.8515 2.00001H21.3148C21.9491 2.00001 22.4632 2.51042 22.4632 3.14002V14.5766C22.4632 17.5719 20.0172 20 16.9999 20H18.5365C21.5538 20 23.9999 17.5719 23.9999 14.5766V3.14002C23.9999 2.51042 23.4857 2.00001 22.8515 2.00001V2.00001Z" fill="#FFC328"/>
<path d="M16.1374 7.00001H8.86289C8.66258 7.00001 8.50019 6.80252 8.50019 6.55889V4.83807C8.50019 3.82297 9.17679 3.00002 10.0115 3.00002H14.9889C15.8235 3.00002 16.5002 3.82292 16.5002 4.83807V6.55889C16.5001 6.80252 16.3378 7.00001 16.1374 7.00001Z" fill="#BBF7FF"/>
<path d="M13.5 16C13.2239 16 13 15.6492 13 15.2165V9.78365C13 9.35091 13.2239 9.00005 13.5 9.00005C13.7762 9.00005 14 9.35086 14 9.78365V15.2165C14 15.6492 13.7762 16 13.5 16Z" fill="#546E7A"/>
<path d="M12.8984 5.41029L11.5893 4.10121C11.4544 3.9663 11.2356 3.9663 11.1008 4.10121C10.9659 4.23613 10.9659 4.45487 11.1008 4.58974L12.4098 5.89882C12.4773 5.96626 12.5657 6.00002 12.6541 6.00002C12.7425 6.00002 12.8309 5.96631 12.8984 5.89882C13.0333 5.76395 13.0333 5.54521 12.8984 5.41029Z" fill="#F74F68"/>
<path d="M12.9996 5.99951H12.0001V5.53308C12.0001 5.23869 12.2239 5.00003 12.4998 5.00003C12.7758 5.00003 12.9996 5.23869 12.9996 5.53308V5.99951Z" fill="#546E7A"/>
<path fill-rule="evenodd" clip-rule="evenodd" d="M9.90992 3.00002H15.0905C16.1435 3.00002 17.0002 3.83651 17.0002 4.86469V6.30259C17.0002 6.68715 16.6798 7.00001 16.286 7.00001H8.71448C8.32064 7.00001 8.00021 6.68715 8.00021 6.30259V4.86469C8.00021 3.83651 8.85691 3.00002 9.90992 3.00002ZM16.2865 6.34243C16.309 6.34243 16.3272 6.32458 16.3272 6.30266V4.86476C16.3272 4.19922 15.7727 3.65775 15.0911 3.65775H9.91051C9.22889 3.65775 8.67434 4.19922 8.67434 4.86476V6.30266C8.67434 6.32458 8.69262 6.34243 8.71507 6.34243H16.2865Z" fill="#546E7A"/>
</svg>
