<svg width="16" height="16" viewBox="0 0 16 16" fill="none" xmlns="http://www.w3.org/2000/svg">
<path fill-rule="evenodd" clip-rule="evenodd" d="M15.9998 7.9999C15.9998 12.4181 12.4181 15.9998 7.9999 15.9998C3.58168 15.9998 0 12.4181 0 7.9999C0 3.58168 3.58168 0 7.9999 0C12.4181 0 15.9998 3.58168 15.9998 7.9999ZM0.999988 7.9999C0.999988 11.8658 4.13396 14.9998 7.9999 14.9998C11.8658 14.9998 14.9998 11.8658 14.9998 7.9999C14.9998 4.13396 11.8658 0.999988 7.9999 0.999988C4.13396 0.999988 0.999988 4.13396 0.999988 7.9999ZM8.00004 11.9998C8.27618 11.9998 8.50004 11.7759 8.50004 11.4998V5.70685L10.646 7.85382C10.8415 8.04933 11.1585 8.04933 11.354 7.85382C11.5495 7.65831 11.5495 7.34134 11.354 7.14583L8.35404 4.14587C8.26024 4.05183 8.13287 3.99897 8.00004 3.99897C7.86722 3.99897 7.73985 4.05183 7.64605 4.14587L4.64609 7.14583C4.45058 7.34134 4.45058 7.65831 4.64609 7.85382C4.84159 8.04933 5.15857 8.04933 5.35408 7.85382L7.50005 5.70685V11.4998C7.50005 11.7759 7.72391 11.9998 8.00004 11.9998Z" fill="#F5634A"/>
</svg>
