<svg width="16" height="16" viewBox="0 0 16 16" fill="none" xmlns="http://www.w3.org/2000/svg">
<path fill-rule="evenodd" clip-rule="evenodd" d="M15.9998 8.0001C15.9998 3.58187 12.4181 0.000197258 7.9999 0.000197258C3.58168 0.000197258 0 3.58187 0 8.0001C0 12.4183 3.58168 16 7.9999 16C12.4181 16 15.9998 12.4183 15.9998 8.0001ZM0.999988 8.0001C0.999988 4.13415 4.13396 1.00019 7.9999 1.00019C11.8658 1.00019 14.9998 4.13415 14.9998 8.0001C14.9998 11.866 11.8658 15 7.9999 15C4.13396 15 0.999988 11.866 0.999988 8.0001ZM8.00004 4.00023C8.27618 4.00023 8.50004 4.22409 8.50004 4.50023V10.2932L10.646 8.14618C10.8415 7.95067 11.1585 7.95067 11.354 8.14618C11.5495 8.34169 11.5495 8.65866 11.354 8.85417L8.35404 11.8541C8.26024 11.9482 8.13287 12.001 8.00004 12.001C7.86722 12.001 7.73985 11.9482 7.64605 11.8541L4.64609 8.85417C4.45058 8.65866 4.45058 8.34169 4.64609 8.14618C4.84159 7.95067 5.15857 7.95067 5.35408 8.14618L7.50005 10.2932V4.50023C7.50005 4.22409 7.72391 4.00023 8.00004 4.00023Z" fill="#40DBC1"/>
</svg>
