<svg width="133" height="31" viewBox="0 0 133 31" fill="none" xmlns="http://www.w3.org/2000/svg">
<path d="M132.7 12.4002H131.458V12.3362H117.58V18.5043H126.294C125.023 22.0949 121.607 24.6724 117.58 24.6724C112.47 24.6724 108.327 20.5298 108.327 15.4203C108.327 10.3108 112.47 6.16811 117.58 6.16811C119.938 6.16811 122.084 7.05786 123.718 8.51122L128.079 4.14959C125.325 1.58289 121.641 0 117.58 0C109.064 0 102.159 6.90443 102.159 15.4203C102.159 23.9361 109.064 30.8405 117.58 30.8405C126.095 30.8405 133 23.9361 133 15.4203C133 14.3863 132.893 13.3771 132.7 12.4002Z" fill="#FFC107"/>
<path d="M104.087 7.97186L109.143 11.5652C110.511 8.2828 113.825 5.96529 117.702 5.96529C120.056 5.96529 122.197 6.82578 123.828 8.23135L128.181 4.01315C125.432 1.53084 121.756 0 117.702 0C111.791 0 106.665 3.23393 104.087 7.97186Z" fill="#FF3D00"/>
<path d="M117.831 30.8405C121.818 30.8405 125.441 29.2872 128.181 26.7611L123.403 22.6456C121.801 23.8857 119.843 24.5565 117.831 24.5548C113.815 24.5548 110.406 21.9486 109.121 18.3116L104.087 22.2598C106.642 27.3488 111.831 30.8405 117.831 30.8405Z" fill="#4CAF50"/>
<path d="M132.7 12.5927H131.458V12.529H117.58V18.6714H126.294C125.686 20.3732 124.591 21.8603 123.143 22.9489L123.146 22.9474L127.918 26.9692C127.58 27.2747 133 23.2783 133 15.6002C133 14.5706 132.893 13.5655 132.7 12.5927Z" fill="#1976D2"/>
<mask id="mask0_2_4554" style="mask-type:alpha" maskUnits="userSpaceOnUse" x="48" y="0" width="32" height="31">
<path fill-rule="evenodd" clip-rule="evenodd" d="M48.1884 0H79.029V30.8405H48.1884V0Z" fill="white"/>
</mask>
<g mask="url(#mask0_2_4554)">
<path fill-rule="evenodd" clip-rule="evenodd" d="M79.029 15.5145C79.029 6.94608 72.1251 0 63.6087 0C55.0923 0 48.1884 6.94608 48.1884 15.5145C48.1884 23.2582 53.8274 29.6766 61.1993 30.8405V19.9992H57.284V15.5145H61.1993V12.0965C61.1993 8.20814 63.5014 6.06035 67.0237 6.06035C68.7108 6.06035 70.4755 6.36337 70.4755 6.36337V10.1814H68.5311C66.6155 10.1814 66.0181 11.3773 66.0181 12.6042V15.5145H70.2948L69.6112 19.9992H66.0181V30.8405C73.39 29.6766 79.029 23.2582 79.029 15.5145Z" fill="#1877F2"/>
</g>
<path fill-rule="evenodd" clip-rule="evenodd" d="M69.4709 19.7713L70.1702 15.2706H65.7958V12.3499C65.7958 11.1186 66.4068 9.91839 68.3661 9.91839H70.355V6.08671C70.355 6.08671 68.55 5.78261 66.8244 5.78261C63.2217 5.78261 60.867 7.93808 60.867 11.8403V15.2706H56.8623V19.7713H60.867V30.6514C61.67 30.7758 62.493 30.8405 63.3314 30.8405C64.1698 30.8405 64.9928 30.7758 65.7958 30.6514V19.7713H69.4709Z" fill="white"/>
<path fill-rule="evenodd" clip-rule="evenodd" d="M18.6559 0C18.8532 1.8058 18.13 3.62053 17.0552 4.92419H17.0553C15.9806 6.22864 14.2167 7.24184 12.4901 7.10795C12.2548 5.33795 13.1268 3.49124 14.1226 2.33737C15.2337 1.03449 17.1068 0.0623874 18.6559 0ZM25.0514 22.6221C24.8648 22.5463 20.9701 20.9654 20.9276 16.3845V16.3846C20.8934 12.5628 23.977 10.6849 24.2406 10.5243C24.2462 10.521 24.2504 10.5184 24.2534 10.5165C22.4449 7.86346 19.6282 7.49924 18.6249 7.45735C17.1589 7.30849 15.7365 7.87072 14.575 8.32984C13.8376 8.62134 13.2053 8.87127 12.7338 8.87127C12.2076 8.87127 11.5575 8.61286 10.828 8.32292C9.87286 7.94329 8.78171 7.50959 7.65473 7.53112C5.04166 7.56918 2.63404 9.05304 1.28689 11.3965C-1.42495 16.1154 0.594662 23.1062 3.23749 26.9351C4.53071 28.807 6.07217 30.9153 8.09637 30.8385C9.00224 30.8028 9.64619 30.528 10.312 30.2438C11.0799 29.9161 11.8769 29.5759 13.1383 29.5759C14.3434 29.5759 15.1054 29.9063 15.8381 30.224C16.5378 30.5273 17.2108 30.819 18.2172 30.8004C20.3144 30.7617 21.6457 28.8899 22.9283 27.0111C24.3629 24.9099 24.9822 22.8735 25.0526 22.6421C25.055 22.6342 25.0568 22.6284 25.0579 22.6247C25.0571 22.6244 25.0549 22.6235 25.0514 22.6221Z" fill="black"/>
</svg>
