<svg width="18" height="18" viewBox="0 0 18 18" fill="none" xmlns="http://www.w3.org/2000/svg">
<path d="M16.2929 17.707C16.6834 18.0976 17.3166 18.0976 17.7071 17.707C18.0976 17.3165 18.0976 16.6834 17.7071 16.2928L16.2929 17.707ZM13.7071 12.2928C13.3166 11.9023 12.6834 11.9023 12.2929 12.2928C11.9024 12.6834 11.9024 13.3165 12.2929 13.707L13.7071 12.2928ZM17.7071 16.2928L13.7071 12.2928L12.2929 13.707L16.2929 17.707L17.7071 16.2928ZM14 7.99994C14 11.3137 11.3137 13.9999 8 13.9999V15.9999C12.4183 15.9999 16 12.4182 16 7.99994H14ZM8 13.9999C4.68629 13.9999 2 11.3137 2 7.99994H3.09648e-07C3.09648e-07 12.4182 3.58172 15.9999 8 15.9999V13.9999ZM2 7.99994C2 4.68623 4.68629 1.99994 8 1.99994V-5.71611e-05C3.58172 -5.71611e-05 3.09648e-07 3.58166 3.09648e-07 7.99994H2ZM8 1.99994C11.3137 1.99994 14 4.68623 14 7.99994H16C16 3.58166 12.4183 -5.71611e-05 8 -5.71611e-05V1.99994Z" fill="#404B52"/>
</svg>
