<svg width="24" height="24" viewBox="0 0 24 24" fill="none" xmlns="http://www.w3.org/2000/svg">
<path fill-rule="evenodd" clip-rule="evenodd" d="M23.3488 10.437C23.3494 10.4375 23.3499 10.4383 23.3507 10.4388C24.2103 11.3003 24.2099 12.7013 23.3494 13.5622C22.9318 13.9799 22.377 14.2097 21.7871 14.2097H21.4253V21.4141C21.4253 22.84 20.2655 23.9999 18.8396 23.9999H15.0098C14.6215 23.9999 14.3068 23.685 14.3068 23.2968V17.6484C14.3068 16.9978 13.7776 16.4686 13.1271 16.4686H10.8682C10.2177 16.4686 9.68841 16.9978 9.68841 17.6484V23.2968C9.68841 23.685 9.37368 23.9999 8.98535 23.9999H5.15555C3.72986 23.9999 2.56982 22.84 2.56982 21.4141V14.2097H2.17985C2.15697 14.2097 2.13426 14.2086 2.11156 14.2064C1.55699 14.1824 1.03849 13.955 0.64577 13.562C-0.21382 12.7024 -0.215285 11.304 0.641559 10.4421L0.651446 10.432L10.4354 0.647276C10.8528 0.229797 11.4076 0 11.9977 0C12.5878 0 13.1425 0.229797 13.5598 0.647276L23.3488 10.437ZM21.7869 12.8034C22.0013 12.8034 22.2031 12.7197 22.3548 12.568C22.6672 12.2554 22.6677 11.7469 22.3563 11.4333L22.3517 11.4289L12.5652 1.64154C12.4134 1.48974 12.2119 1.40625 11.9975 1.40625C11.7829 1.40625 11.5813 1.48974 11.4297 1.64154L1.64099 11.4309L1.64044 11.4314C1.64036 11.4315 1.64032 11.4316 1.64027 11.4317C1.64022 11.4317 1.64018 11.4318 1.64008 11.4318C1.327 11.7451 1.327 12.2547 1.64008 12.5678C1.78728 12.7152 1.98373 12.7983 2.19318 12.802C2.20435 12.8021 2.21515 12.8027 2.22614 12.8034H3.27266C3.66098 12.8034 3.97571 13.1182 3.97571 13.5065V21.4141C3.97571 22.0645 4.50501 22.5937 5.15534 22.5937H8.28209V17.6484C8.28209 16.2225 9.44212 15.0624 10.868 15.0624H13.1269C14.5528 15.0624 15.7126 16.2225 15.7126 17.6484V22.5937H18.8394C19.4899 22.5937 20.019 22.0645 20.019 21.4141V13.5065C20.019 13.1182 20.3337 12.8034 20.7221 12.8034H21.7869Z" fill="#9299A3"/>
</svg>
