<svg width="24" height="24" viewBox="0 0 24 24" fill="none" xmlns="http://www.w3.org/2000/svg">
<path fill-rule="evenodd" clip-rule="evenodd" d="M19.9992 0.232116C20.4555 -0.219087 21.2365 0.0231893 21.3505 0.651274L21.6532 2.32052L23.3413 2.61983C23.9764 2.73245 24.2215 3.50475 23.7652 3.95594L22.0225 5.67914C23.2515 7.53963 23.966 9.76275 23.966 12.1508C23.966 18.6949 18.6011 23.9999 11.983 23.9999C5.36498 23.9999 0 18.6949 0 12.1508C0 5.60666 5.36498 0.301618 11.983 0.301618C14.2574 0.301618 16.3837 0.928124 18.1951 2.01614L19.9992 0.232116ZM20.22 1.87597L18.6503 3.42808L18.9642 4.97968L20.5333 5.29001L22.1029 3.73788L21.0535 3.55183C20.7246 3.4935 20.4671 3.23893 20.4081 2.91369L20.22 1.87597ZM21.028 6.5855C22.0463 8.20029 22.6346 10.1075 22.6346 12.1507C22.6346 17.9677 17.8658 22.6833 11.9831 22.6833C6.1004 22.6833 1.33154 17.9677 1.33154 12.1507C1.33154 6.33376 6.1004 1.61816 11.9831 1.61816C13.9226 1.61816 15.7411 2.13075 17.3074 3.02642C17.27 3.14895 17.2627 3.28047 17.2888 3.40981L17.7192 5.53764L15.2431 7.98603C14.3423 7.29546 13.2112 6.88442 11.9831 6.88442C9.04175 6.88442 6.65732 9.24222 6.65732 12.1507C6.65732 15.0592 9.04175 17.417 11.9831 17.417C14.9244 17.417 17.3089 15.0592 17.3089 12.1507C17.3089 10.9312 16.8896 9.8084 16.1859 8.91573L18.8346 6.29661L20.5516 6.63618C20.7143 6.66834 20.8803 6.64928 21.028 6.5855ZM14.2915 8.92717L11.5217 11.666C11.2618 11.9231 11.2618 12.3398 11.5217 12.5969C11.7818 12.8541 12.2033 12.8541 12.4633 12.5969L15.2347 9.85647C15.7023 10.5032 15.9774 11.2952 15.9774 12.1509C15.9774 14.3323 14.1891 16.1006 11.9831 16.1006C9.77701 16.1006 7.98874 14.3323 7.98874 12.1509C7.98874 9.96944 9.77701 8.20114 11.9831 8.20114C12.8431 8.20114 13.6397 8.46992 14.2915 8.92717Z" fill="#9299A3"/>
</svg>
